<?xml version="1.0" standalone="no"?>
<!DOCTYPE svg PUBLIC "-//W3C//DTD SVG 20010904//EN"
 "http://www.w3.org/TR/2001/REC-SVG-20010904/DTD/svg10.dtd">
<svg version="1.0" xmlns="http://www.w3.org/2000/svg"
 width="512.000000pt" height="512.000000pt" viewBox="0 0 512.000000 512.000000"
 preserveAspectRatio="xMidYMid meet">
<metadata>
Created by potrace 1.14, written by Peter Selinger 2001-2017
</metadata>
<g transform="translate(0.000000,512.000000) scale(0.100000,-0.100000)"
fill="#000000" stroke="none">
<path d="M3799 4587 c-20 -17 -44 -44 -53 -60 -9 -15 -34 -39 -56 -53 -22 -15
-40 -31 -40 -37 0 -24 54 -67 83 -67 39 0 107 66 107 104 0 27 7 29 49 17 28
-7 37 -46 66 -271 19 -147 19 -204 0 -220 -21 -17 -19 -33 6 -56 34 -31 49
-70 49 -129 0 -67 -18 -113 -67 -173 -41 -50 -100 -81 -154 -82 -57 0 -234 54
-273 84 -34 25 -116 135 -116 153 0 19 -23 33 -36 22 -16 -14 -37 -2 -30 17 3
9 -53 79 -147 182 -172 189 -197 219 -197 239 0 11 6 10 25 -6 59 -46 135 -30
176 35 24 39 21 66 -12 107 -25 33 -45 34 -73 4 -36 -39 -94 -77 -118 -77 -35
-1 -78 -44 -78 -78 0 -11 99 -126 272 -316 65 -71 118 -136 118 -144 0 -8 -7
-20 -17 -27 -14 -11 -12 -17 24 -56 45 -49 78 -102 192 -314 9 -16 24 -41 34
-55 9 -13 24 -47 33 -75 9 -27 28 -62 41 -77 32 -33 107 -66 170 -74 97 -12
121 -30 168 -124 112 -222 159 -506 121 -720 -18 -98 -69 -251 -108 -320 -71
-124 -175 -221 -320 -296 -112 -57 -241 -90 -428 -110 -318 -33 -492 -80 -733
-201 -204 -101 -272 -123 -389 -123 -158 0 -361 36 -473 83 -166 69 -322 225
-384 385 -26 66 -26 70 2 45 46 -43 51 -43 477 -43 l412 0 -86 91 c-129 135
-198 289 -213 469 -19 241 137 510 362 623 101 50 181 68 305 68 307 1 538
-143 670 -416 47 -98 60 -158 60 -282 0 -180 -57 -322 -179 -444 -42 -41 -87
-83 -101 -92 -23 -15 -6 -16 272 -16 l298 -1 41 37 c23 21 48 52 56 70 10 26
13 150 13 623 0 524 -2 595 -16 623 -33 64 -88 107 -139 107 -23 0 -25 3 -25
50 0 60 -14 70 -68 47 -20 -9 -55 -19 -76 -22 -25 -4 -51 -18 -71 -38 -60 -60
-60 -60 -94 -43 -16 9 -54 16 -84 16 l-54 0 -28 93 c-15 50 -39 116 -53 145
-27 56 -100 131 -129 133 -10 1 -103 1 -208 0 -183 -2 -192 -3 -244 -29 -109
-54 -149 -105 -218 -277 -21 -52 -35 -73 -56 -83 -22 -10 -31 -11 -42 -2 -10
8 -89 11 -276 10 l-262 -1 -82 -35 c-108 -46 -149 -81 -170 -145 -15 -44 -18
-121 -24 -569 -4 -386 -9 -522 -18 -531 -27 -27 -33 42 -34 364 l0 322 -19
-53 c-38 -107 -53 -219 -53 -402 0 -245 25 -385 101 -552 17 -37 34 -84 38
-103 7 -41 97 -138 177 -194 169 -116 430 -176 663 -153 125 13 183 32 413
141 102 49 218 100 256 114 90 32 232 62 360 77 339 39 420 57 560 125 119 57
199 118 274 205 85 99 125 162 165 260 55 135 79 270 79 440 0 222 -39 395
-137 604 l-45 96 28 14 c40 21 109 100 133 154 30 65 30 205 -1 372 -69 384
-67 373 -96 366 -27 -7 -30 1 -45 179 -26 295 -35 330 -93 365 -44 27 -66 25
-108 -13z m257 -1014 c18 -43 21 -174 4 -218 -40 -104 -126 -147 -229 -114
-77 25 -96 34 -129 63 -38 33 -117 145 -108 153 3 3 19 0 35 -7 19 -7 60 -11
104 -9 96 5 187 48 248 119 24 27 48 49 52 49 4 1 15 -15 23 -36z m-2541 -587
c18 -8 38 -24 45 -35 6 -12 17 -21 24 -21 17 0 42 -29 49 -58 15 -63 -58 -160
-113 -149 -48 10 -143 61 -163 89 -30 40 -28 110 4 144 42 45 93 55 154 30z"/>
<path d="M2439 2790 c-235 -49 -400 -188 -464 -391 -73 -232 -41 -383 114
-540 149 -151 333 -207 536 -164 86 18 196 70 253 120 138 120 224 320 207
480 -28 268 -275 517 -507 514 -29 0 -92 -9 -139 -19z m211 -70 c128 -39 238
-138 321 -289 l54 -96 -1 -110 c0 -97 -4 -118 -27 -175 -77 -183 -250 -310
-421 -310 -158 0 -323 65 -427 169 -121 121 -166 264 -136 431 20 114 47 168
127 250 71 74 171 131 261 150 62 13 173 4 249 -20z"/>
<path d="M2540 2565 c-90 -68 -124 -101 -141 -140 -10 -23 -36 -57 -58 -77
-22 -20 -48 -53 -57 -74 -9 -22 -23 -54 -30 -71 -14 -33 -28 -39 -81 -34 -30
2 -30 -19 1 -84 62 -133 243 -223 391 -195 97 18 156 58 225 151 67 90 80 126
80 220 0 91 -22 146 -86 217 -50 56 -156 124 -188 121 -6 0 -31 -16 -56 -34z"/>
<path d="M2245 478 c-27 -5 -65 -10 -82 -11 -18 0 -33 -5 -33 -9 0 -4 -7 -8
-17 -8 -9 0 -34 -8 -55 -17 -32 -14 -38 -21 -38 -48 0 -31 1 -31 83 -50 67
-16 121 -20 292 -20 116 0 226 3 245 7 37 8 66 12 168 23 34 4 69 13 77 21 7
8 18 14 24 14 6 0 11 9 11 20 0 11 -6 20 -14 20 -7 0 -16 8 -18 18 -3 10 -11
19 -19 20 -8 1 -39 3 -69 6 -30 2 -95 9 -145 15 -109 13 -341 12 -410 -1z"/>
</g>
</svg>
